<svg width="24" height="24" viewBox="0 0 24 24" fill="none" xmlns="http://www.w3.org/2000/svg">
<path fill-rule="evenodd" clip-rule="evenodd" d="M13.3564 4.09708V7.08008C13.3564 7.31357 13.1671 7.50285 12.9336 7.50285H9.9506V9.47181H12.9336C13.1671 9.47181 13.3564 9.66108 13.3564 9.89457V12.8776H15.3253V9.89457C15.3253 9.66109 15.5146 9.47181 15.7481 9.47181H18.7311V7.50285H15.7481C15.5146 7.50285 15.3253 7.31357 15.3253 7.08009V4.09708H13.3564ZM12.771 3.93448C12.771 3.701 12.9603 3.51172 13.1938 3.51172H15.4879C15.7214 3.51172 15.9107 3.701 15.9107 3.93448V6.91748H18.8937C19.1272 6.91748 19.3165 7.10676 19.3165 7.34025V9.63441C19.3165 9.86789 19.1272 10.0572 18.8937 10.0572H15.9107V13.0402C15.9107 13.2737 15.7214 13.4629 15.4879 13.4629H13.1938C12.9603 13.4629 12.771 13.2737 12.771 13.0402V10.0572H9.788C9.55451 10.0572 9.36523 9.86789 9.36523 9.63441V7.34025C9.36523 7.10676 9.55451 6.91748 9.788 6.91748H12.771V3.93448Z" fill="#373873"/>
<path fill-rule="evenodd" clip-rule="evenodd" d="M12 0.585366C5.69587 0.585366 0.585366 5.69587 0.585366 12C0.585366 13.8229 1.01244 15.5451 1.77172 17.073C1.84366 17.2178 1.78463 17.3934 1.63987 17.4654C1.49512 17.5373 1.31945 17.4783 1.24752 17.3335C0.448909 15.7265 0 13.9153 0 12C0 5.37258 5.37258 0 12 0C15.3568 0 18.3921 1.3787 20.5697 3.59999C22.6913 5.76419 24 8.72956 24 12C24 18.6274 18.6274 24 12 24C8.72956 24 5.76419 22.6913 3.59999 20.5697C3.48456 20.4565 3.48271 20.2712 3.59587 20.1558C3.70903 20.0404 3.89434 20.0385 4.00977 20.1517C6.06898 22.1704 8.88889 23.4146 12 23.4146C18.3041 23.4146 23.4146 18.3041 23.4146 12C23.4146 8.8889 22.1704 6.06898 20.1517 4.00977C18.0797 1.89616 15.1932 0.585366 12 0.585366Z" fill="#373873"/>
<path fill-rule="evenodd" clip-rule="evenodd" d="M5.95924 11.5693L9.06099 15.1992L10.4197 15.6535C10.5013 15.6808 10.5727 15.7324 10.6242 15.8013L12.6592 18.523L15.063 17.2077C15.2128 17.1258 15.3973 17.142 15.5305 17.2489L17.8838 19.1373L20.2975 20.052C20.4487 20.1093 20.5248 20.2783 20.4675 20.4294C20.4102 20.5806 20.2413 20.6567 20.0901 20.5994L17.6523 19.6756C17.6108 19.6599 17.5721 19.6377 17.5375 19.61L15.2488 17.7733L13.0132 18.9965L13.507 19.6569L15.4109 20.6118C15.5553 20.6843 15.6137 20.8601 15.5413 21.0046C15.4688 21.1491 15.2929 21.2075 15.1484 21.135L13.2102 20.1629C13.1515 20.1335 13.1005 20.0908 13.0612 20.0382L10.1858 16.1926L8.8326 15.7401C8.75985 15.7158 8.69509 15.6721 8.64525 15.6138L6.69237 13.3284L7.69469 16.3447C7.74567 16.4981 7.66264 16.6637 7.50924 16.7147C7.35585 16.7657 7.19017 16.6827 7.1392 16.5293L5.81469 12.5434L4.20716 14.156C4.15836 14.2049 4.09829 14.2412 4.03223 14.2615L0.962913 15.207C0.808433 15.2546 0.644623 15.168 0.597034 15.0135C0.549445 14.859 0.636097 14.6952 0.790577 14.6476L3.82119 13.714L5.95924 11.5693ZM6.64075 17.2156C6.75522 17.3297 6.75551 17.515 6.64139 17.6295L5.86455 18.4087L6.56198 19.1083C6.71017 19.257 6.72686 19.4918 6.60116 19.6599L5.19426 21.5416C5.09746 21.6711 4.91405 21.6976 4.78459 21.6008C4.65513 21.504 4.62865 21.3205 4.72545 21.1911L6.04816 19.422L5.33555 18.7072C5.17106 18.5422 5.17106 18.2752 5.33555 18.1102L6.22683 17.2162C6.34095 17.1017 6.52627 17.1014 6.64075 17.2156Z" fill="#373873"/>
</svg>
