<svg width="40" height="40" viewBox="0 0 40 40" fill="none" xmlns="http://www.w3.org/2000/svg">
<path d="M20 40C9.01099 40 0 31.0623 0 20C0 9.01099 8.93773 0 20 0C30.989 0 40 8.93773 40 20C40 30.989 31.0623 40 20 40Z" fill="white"/>
<path fill-rule="evenodd" clip-rule="evenodd" d="M17.0513 20.4487V30.5769C17.0513 30.7051 17.1795 30.8333 17.3077 30.8333H21.0897C21.2179 30.8333 21.3461 30.7051 21.3461 30.5769V20.3205H24.1026C24.2308 20.3205 24.359 20.1923 24.359 20.0641L24.6154 16.9872C24.6154 16.859 24.4872 16.7308 24.359 16.7308H21.3461V14.5513C21.3461 14.0385 21.7949 13.5897 22.3077 13.5897H24.4231C24.5513 13.5897 24.6795 13.4615 24.6795 13.3333V10.2564C24.6795 10.1282 24.5513 10 24.4231 10H20.8974C18.782 10 17.1154 11.6667 17.1154 13.7821V16.7949H15.2564C15.1282 16.7949 15 16.9231 15 17.0513V20.1282C15 20.2564 15.1282 20.3846 15.2564 20.3846H17.1154V20.4487H17.0513Z" fill="#373873"/>
</svg>
