<svg width="77" height="12" viewBox="0 0 77 12" fill="none" xmlns="http://www.w3.org/2000/svg">
<path d="M5.37866 0.49007C5.58001 -0.163357 6.5023 -0.163355 6.70365 0.490072L7.63618 3.51637C7.72596 3.80773 7.99457 4.00644 8.29867 4.00644H11.3876C12.0508 4.00644 12.3356 4.85061 11.8085 5.25439L9.25065 7.21396C9.01973 7.39088 8.9233 7.69342 9.0091 7.97185L9.97182 11.0962C10.1711 11.743 9.42487 12.265 8.88839 11.854L6.4621 9.99525C6.21358 9.80486 5.86873 9.80486 5.62022 9.99525L3.19392 11.854C2.65745 12.265 1.91117 11.743 2.11049 11.0962L3.07322 7.97185C3.15901 7.69342 3.06259 7.39088 2.83166 7.21396L0.273818 5.25439C-0.253247 4.85061 0.0314917 4.00644 0.694756 4.00644H3.78364C4.08774 4.00644 4.35635 3.80773 4.44614 3.51637L5.37866 0.49007Z" fill="#FAA85E"/>
<path d="M21.5581 0.49007C21.7594 -0.163357 22.6817 -0.163355 22.8831 0.490072L23.8156 3.51637C23.9054 3.80773 24.174 4.00644 24.4781 4.00644H27.567C28.2302 4.00644 28.515 4.85061 27.9879 5.25439L25.4301 7.21396C25.1992 7.39088 25.1027 7.69342 25.1885 7.97185L26.1512 11.0962C26.3506 11.743 25.6043 12.265 25.0678 11.854L22.6415 9.99525C22.393 9.80486 22.0482 9.80486 21.7996 9.99525L19.3733 11.854C18.8369 12.265 18.0906 11.743 18.2899 11.0962L19.2526 7.97185C19.3384 7.69342 19.242 7.39088 19.0111 7.21396L16.4532 5.25439C15.9262 4.85061 16.2109 4.00644 16.8742 4.00644H19.9631C20.2672 4.00644 20.5358 3.80773 20.6256 3.51637L21.5581 0.49007Z" fill="#FAA85E"/>
<path d="M37.7375 0.49007C37.9389 -0.163358 38.8611 -0.163356 39.0625 0.490072L39.995 3.51637C40.0848 3.80773 40.3534 4.00644 40.6575 4.00644H43.7464C44.4097 4.00644 44.6944 4.85061 44.1673 5.25439L41.6095 7.21397C41.3786 7.39088 41.2821 7.69342 41.3679 7.97185L42.3307 11.0962C42.53 11.743 41.7837 12.265 41.2472 11.854L38.8209 9.99525C38.5724 9.80486 38.2276 9.80486 37.9791 9.99525L35.5528 11.854C35.0163 12.265 34.27 11.743 34.4693 11.0962L35.4321 7.97185C35.5179 7.69342 35.4214 7.39088 35.1905 7.21397L32.6327 5.25439C32.1056 4.85061 32.3903 4.00644 33.0536 4.00644H36.1425C36.4466 4.00644 36.7152 3.80773 36.805 3.51637L37.7375 0.49007Z" fill="#FAA85E"/>
<path d="M53.9169 0.49007C54.1183 -0.163357 55.0406 -0.163355 55.2419 0.490072L56.1744 3.51637C56.2642 3.80773 56.5328 4.00644 56.8369 4.00644H59.9258C60.5891 4.00644 60.8738 4.85061 60.3468 5.25439L57.7889 7.21396C57.558 7.39088 57.4616 7.69342 57.5474 7.97185L58.5101 11.0962C58.7094 11.743 57.9631 12.265 57.4267 11.854L55.0004 9.99525C54.7518 9.80486 54.407 9.80486 54.1585 9.99525L51.7322 11.854C51.1957 12.265 50.4494 11.743 50.6488 11.0962L51.6115 7.97185C51.6973 7.69342 51.6009 7.39088 51.3699 7.21396L48.8121 5.25439C48.285 4.85061 48.5698 4.00644 49.233 4.00644H52.3219C52.626 4.00644 52.8946 3.80773 52.9844 3.51637L53.9169 0.49007Z" fill="#FAA85E"/>
<path fill-rule="evenodd" clip-rule="evenodd" d="M73.0164 4.00644C72.7123 4.00644 72.4436 3.80773 72.3539 3.51637L71.4213 0.490072C71.22 -0.163355 70.2977 -0.163357 70.0964 0.49007L69.1638 3.51637C69.074 3.80773 68.8054 4.00644 68.5013 4.00644H65.4124C64.7492 4.00644 64.4644 4.85061 64.9915 5.25439L67.5493 7.21396C67.7803 7.39088 67.8767 7.69342 67.7909 7.97185L66.8282 11.0962C66.6289 11.743 67.3751 12.265 67.9116 11.854L70.3379 9.99525C70.5864 9.80486 70.9313 9.80486 71.1798 9.99525L73.6061 11.854C74.1426 12.265 74.8888 11.743 74.6895 11.0962L73.7268 7.97185C73.641 7.69342 73.7374 7.39088 73.9683 7.21396L76.5262 5.25439C77.0533 4.85061 76.7685 4.00644 76.1052 4.00644H73.0164ZM73.5343 6.27944C76.2891 4.55201 76.3059 4.54148 73.1714 5.02258C73.1338 5.02836 73.0943 5.03149 73.0562 5.03149H72.3101C72.006 5.03149 71.7374 4.83278 71.6476 4.54141L71.4213 3.8072C71.3207 3.48046 71.0397 1.50391 70.7588 1.50393C70.7588 2.00864 70.7588 3.82184 70.7588 3.82184V4.74901V5.67617V6.13975V6.60334V7.06692V7.5305V7.99409C70.7588 7.99409 70.7588 7.99409 70.7588 8.58543C70.9072 8.58542 71.0555 8.63301 71.1798 8.72822L71.757 9.17043C74.061 11.0962 74.0434 11.0962 72.8404 8.41254L72.584 7.58032C72.4982 7.30189 72.5946 6.99934 72.8256 6.82243L73.5343 6.27944Z" fill="#FAA85E"/>
</svg>
