<svg width="24" height="24" viewBox="0 0 24 24" fill="none" xmlns="http://www.w3.org/2000/svg">
<path fill-rule="evenodd" clip-rule="evenodd" d="M12 0.585366C5.69587 0.585366 0.585366 5.69587 0.585366 12C0.585366 14.1354 1.17147 16.1331 2.19143 17.8418C2.27428 17.9806 2.22892 18.1603 2.09012 18.2432C1.95132 18.326 1.77164 18.2806 1.6888 18.1418C0.616202 16.3449 0 14.244 0 12C0 5.37258 5.37258 0 12 0C15.3568 0 18.3921 1.3787 20.5697 3.59999C22.6913 5.76419 24 8.72956 24 12C24 18.6274 18.6274 24 12 24C8.72956 24 5.76419 22.6913 3.59999 20.5697C3.48456 20.4565 3.48271 20.2712 3.59587 20.1558C3.70903 20.0404 3.89434 20.0385 4.00977 20.1517C6.06898 22.1704 8.88889 23.4146 12 23.4146C18.3041 23.4146 23.4146 18.3041 23.4146 12C23.4146 8.8889 22.1704 6.06898 20.1517 4.00977C18.0797 1.89616 15.1932 0.585366 12 0.585366Z" fill="#373873"/>
<path fill-rule="evenodd" clip-rule="evenodd" d="M8.68351 15.499C8.35789 15.4882 7.1149 15.4888 5.79373 16.0218C5.5395 16.1243 5.16778 16.1896 4.76796 16.2338C4.3602 16.2788 3.89486 16.3045 3.43711 16.3173C2.52342 16.3429 1.61934 16.3175 1.23182 16.2859C1.07071 16.2728 0.950746 16.1315 0.963873 15.9704C0.977 15.8093 1.11825 15.6893 1.27936 15.7025C1.63959 15.7318 2.5213 15.7574 3.42073 15.7322C3.86954 15.7196 4.31759 15.6946 4.70372 15.6519C5.09778 15.6084 5.40044 15.5492 5.57475 15.4789C7.00368 14.9025 8.33947 14.9019 8.70295 14.914C8.78472 14.9167 8.86141 14.9282 8.93294 14.9436L12.1072 15.6268C12.1897 15.6446 12.275 15.6521 12.362 15.6498C12.5325 15.6453 12.8119 15.6401 13.0794 15.6453C13.213 15.6479 13.3467 15.6532 13.464 15.6628C13.5745 15.6719 13.6934 15.6864 13.7844 15.7149C13.9708 15.7733 14.1301 15.8684 14.2348 15.9908C14.3235 16.0945 14.4504 16.3331 14.277 16.5503C14.2794 16.5474 14.2495 16.5869 14.2226 16.6181C14.1909 16.6547 14.1489 16.6984 14.0938 16.7447C13.9828 16.8378 13.8256 16.9353 13.6043 17.0102C13.1642 17.159 12.4858 17.2133 11.4274 16.9915C10.8453 16.8695 10.518 16.9002 10.3426 16.9641C10.1884 17.0203 10.1431 17.1041 10.1238 17.1764C10.1134 17.2148 10.1174 17.2611 10.1598 17.3277C10.2049 17.3987 10.2833 17.4736 10.3814 17.5402L11.9083 18.5768C12.0619 18.6811 12.2396 18.7403 12.4229 18.7478C12.8114 18.7635 13.4529 18.7861 14.0626 18.7929C14.6856 18.7997 15.2376 18.789 15.4708 18.7467C15.7112 18.7031 16.0358 18.5398 16.3493 18.3443C16.6534 18.1547 16.9125 17.9572 17.014 17.8775C17.0501 17.8492 17.0907 17.8189 17.1368 17.7896C17.2451 17.7208 17.5058 17.5609 17.8002 17.4244C17.9474 17.3562 18.109 17.2909 18.2682 17.2463C18.4233 17.2029 18.5986 17.1724 18.7648 17.1934C18.9307 17.2144 19.0825 17.3001 19.1613 17.4628C19.2303 17.6051 19.218 17.756 19.1918 17.867C19.1388 18.0914 18.9892 18.3244 18.8222 18.4786C18.4657 18.808 17.9268 19.2975 17.4247 19.7205C17.174 19.9318 16.9291 20.1293 16.7189 20.2827C16.6139 20.3594 16.5144 20.4274 16.425 20.4813C16.34 20.5326 16.2471 20.5817 16.1591 20.6075L16.1566 20.6083C15.9945 20.6543 15.6051 20.7137 15.1449 20.7757C14.6729 20.8392 14.0964 20.9092 13.5384 20.9741C12.9801 21.0391 12.4392 21.0992 12.0379 21.143C11.8372 21.1649 11.6714 21.1828 11.5557 21.1951L11.3751 21.2144L11.3437 20.9234L11.313 20.6323L11.4934 20.6131C11.6087 20.6008 11.7741 20.5829 11.9743 20.5611C12.3748 20.5173 12.9143 20.4574 13.4707 20.3927C14.0274 20.3279 14.5999 20.2584 15.0668 20.1955C15.5454 20.1311 15.8847 20.0769 15.9968 20.0451L16.0767 20.3267L15.9943 20.0458C16.008 20.0418 16.0487 20.0247 16.1226 19.9801C16.192 19.9382 16.2764 19.881 16.3737 19.81C16.5681 19.668 16.8012 19.4804 17.0475 19.2728C17.5395 18.8584 18.0707 18.376 18.425 18.0486C18.5069 17.973 18.5773 17.8629 18.6095 17.7739C18.5607 17.7781 18.4997 17.7894 18.4262 17.8099C18.3076 17.8432 18.1769 17.895 18.0465 17.9555C17.7857 18.0764 17.5495 18.2208 17.4507 18.2836C17.4275 18.2984 17.4038 18.3157 17.3752 18.3381C17.2655 18.4242 16.9881 18.6358 16.659 18.8411C16.3391 19.0405 15.9335 19.2577 15.5752 19.3227C15.2754 19.3771 14.661 19.3849 14.0562 19.3782C13.438 19.3714 12.79 19.3485 12.3993 19.3326C12.1047 19.3207 11.8216 19.2255 11.5795 19.0611L10.0526 18.0245C9.91464 17.9308 9.76806 17.8027 9.66578 17.6418C9.56074 17.4766 9.49477 17.2621 9.55834 17.0249C9.62378 16.7806 9.79685 16.5399 10.1422 16.4141C10.4664 16.2959 10.9199 16.2871 11.5475 16.4186C12.5441 16.6274 13.1088 16.5598 13.4168 16.4557C13.555 16.4089 13.6444 16.3539 13.7009 16.3097C13.6762 16.2974 13.6459 16.2849 13.6094 16.2735C13.5856 16.266 13.5233 16.255 13.4162 16.2462C13.3158 16.238 13.1954 16.2331 13.068 16.2306C12.8137 16.2256 12.5444 16.2305 12.3775 16.2349C12.2466 16.2384 12.1147 16.2272 11.984 16.1991L8.80977 15.5159C8.76339 15.5059 8.72228 15.5003 8.68351 15.499ZM13.7924 16.3745C13.7929 16.3752 13.7924 16.3745 13.7924 16.3745V16.3745ZM4.74516 19.3295C4.76607 19.1692 4.91296 19.0562 5.07325 19.0771C6.97874 19.3257 8.11982 19.6273 8.88159 19.9001C9.2625 20.0366 9.54483 20.1645 9.77388 20.2707C9.79272 20.2794 9.81107 20.2879 9.82896 20.2962C10.0335 20.3912 10.1787 20.4587 10.3236 20.5039C10.4779 20.5522 10.5639 20.7163 10.5156 20.8706C10.4674 21.0249 10.3032 21.1109 10.149 21.0626C9.96503 21.0051 9.7838 20.9209 9.58963 20.8305C9.56914 20.821 9.5485 20.8114 9.5277 20.8018C9.30463 20.6984 9.04071 20.5789 8.6842 20.4512C7.97111 20.1958 6.87262 19.9022 4.99752 19.6575C4.83723 19.6366 4.72425 19.4897 4.74516 19.3295ZM11.0526 20.9541C11.0356 20.7933 11.1523 20.6492 11.313 20.6323L11.3437 20.9234L11.3751 21.2144C11.2144 21.2313 11.0695 21.1148 11.0526 20.9541Z" fill="#373873"/>
<path fill-rule="evenodd" clip-rule="evenodd" d="M10.7024 6.53672C9.07863 5.47427 7.09936 5.36572 6.66743 5.35799C6.66049 5.35787 6.65376 5.35777 6.64718 5.35769C6.26392 7.17121 6.35411 8.55679 6.71214 9.61635C7.07896 10.7019 7.73426 11.4673 8.49411 12.0107C9.94825 13.0508 11.7843 13.2768 12.677 13.3207C13.1165 11.422 13.0138 9.99382 12.6208 8.91817C12.2198 7.82058 11.5068 7.06305 10.7024 6.53672ZM13.1706 8.71731C13.6214 9.95127 13.7097 11.5414 13.2157 13.5861C13.1736 13.7604 13.0142 13.9186 12.7956 13.9114C11.9372 13.8831 9.83263 13.6878 8.15358 12.4869C7.30705 11.8814 6.56858 11.0201 6.15757 9.80374C5.74749 8.5901 5.67079 7.04519 6.10805 5.08193C6.14687 4.9076 6.30421 4.76885 6.49839 4.77151C6.51161 4.77169 6.53813 4.7718 6.56752 4.77193C6.608 4.7721 6.65391 4.77229 6.6779 4.77272C7.13812 4.78095 9.25635 4.89102 11.0229 6.04689C11.9137 6.62971 12.7191 7.48127 13.1706 8.71731Z" fill="#373873"/>
<path fill-rule="evenodd" clip-rule="evenodd" d="M9.95273 10.1425C10.0894 10.0562 10.2702 10.097 10.3565 10.2336C12.7849 14.0773 16.0719 14.9456 17.2274 15.2508C17.3057 15.2714 17.3742 15.2895 17.432 15.3058L17.4322 15.3058C17.488 15.3216 17.5546 15.3378 17.6297 15.3561C17.8918 15.42 18.2585 15.5094 18.6433 15.694C19.1531 15.9387 19.7091 16.3512 20.234 17.0995C20.3268 17.2319 20.2948 17.4144 20.1624 17.5072C20.0301 17.6 19.8476 17.568 19.7548 17.4357C19.2878 16.7699 18.8098 16.4232 18.3901 16.2218C18.0666 16.0666 17.7845 15.9975 17.5283 15.9347C17.4405 15.9132 17.3558 15.8925 17.2734 15.8693C17.2164 15.8532 17.1481 15.8352 17.0697 15.8145C15.8921 15.5037 12.4136 14.5856 9.86162 10.5463C9.77528 10.4096 9.81608 10.2288 9.95273 10.1425Z" fill="#373873"/>
<path fill-rule="evenodd" clip-rule="evenodd" d="M17.7866 7.76147C16.8538 8.52823 16.406 9.23994 16.2419 9.86616C16.0727 10.5117 16.1949 11.1051 16.4619 11.633C16.9499 12.5977 17.9028 13.3052 18.3276 13.5857C18.9457 12.8477 19.2452 12.1524 19.3492 11.5223C19.4583 10.8609 19.3552 10.2517 19.1514 9.71654C18.7877 8.76173 18.1095 8.05809 17.7866 7.76147ZM17.5295 7.21668C17.6692 7.10554 17.8937 7.07858 18.0608 7.22204C18.3329 7.45553 19.2351 8.29159 19.6984 9.50821C19.9319 10.1213 20.0557 10.8358 19.9267 11.6176C19.7976 12.4003 19.4182 13.2306 18.6758 14.0789C18.5549 14.2171 18.334 14.281 18.1437 14.163C17.8086 13.9552 16.562 13.1278 15.9395 11.8972C15.6231 11.2716 15.4626 10.5308 15.6756 9.71778C15.8876 8.90891 16.4591 8.06771 17.5295 7.21668Z" fill="#373873"/>
<path fill-rule="evenodd" clip-rule="evenodd" d="M17.9194 10.4941C18.0725 10.4422 18.2387 10.5242 18.2906 10.6772C18.3895 10.9687 18.4745 11.3104 18.5383 11.6934C18.7146 12.7504 18.7332 14.1402 18.4233 15.6896C18.3916 15.8481 18.2374 15.9509 18.0789 15.9192C17.9204 15.8875 17.8176 15.7333 17.8493 15.5748C18.1455 14.0936 18.1253 12.7753 17.961 11.7897C17.9015 11.4332 17.8236 11.1226 17.7363 10.8653C17.6844 10.7122 17.7664 10.546 17.9194 10.4941Z" fill="#373873"/>
</svg>
