<svg width="26" height="19" viewBox="0 0 26 19" fill="none" xmlns="http://www.w3.org/2000/svg">
<path d="M25.1276 8.51294L20.998 4.02068C20.9053 3.91983 20.7795 3.86334 20.6484 3.86334H17.3784V0.535616C17.3784 0.239772 17.1574 0 16.8848 0H7.10769C6.83506 0 6.6141 0.239772 6.6141 0.535616C6.6141 0.83146 6.83506 1.07123 7.10769 1.07123H16.3912V14.1403H11.0865C10.6525 13.3699 9.87025 12.8548 8.97909 12.8548C8.17276 12.8548 7.45552 13.2768 7.00473 13.9279C6.55414 13.2768 5.83689 12.8548 5.03037 12.8548C4.1394 12.8548 3.35718 13.3699 2.92317 14.1403H0.987179V1.07123H3.15897C3.4316 1.07123 3.65256 0.83146 3.65256 0.535616C3.65256 0.239772 3.4316 0 3.15897 0H0.49359C0.220958 0 0 0.239772 0 0.535616V14.6759C0 14.9717 0.220958 15.2115 0.49359 15.2115H2.58093C2.56917 15.3169 2.56242 15.4241 2.56242 15.5329C2.56242 16.1352 2.74694 16.6918 3.05736 17.1397H0.49359C0.220958 17.1397 0 17.3795 0 17.6753C0 17.9712 0.220958 18.2109 0.49359 18.2109H8.97928C10.3401 18.2109 11.4472 17.0096 11.4472 15.5329C11.4472 15.4241 11.4405 15.3169 11.4287 15.2115H18.5773C18.5657 15.3169 18.559 15.4241 18.559 15.5329C18.559 16.1352 18.7433 16.6918 19.0539 17.1397H14.9056C14.633 17.1397 14.412 17.3795 14.412 17.6753C14.412 17.9712 14.633 18.2109 14.9056 18.2109H21.0269C22.3878 18.2109 23.4949 17.0096 23.4949 15.5329C23.4949 15.4241 23.4881 15.3169 23.4766 15.2115H24.7782C25.0508 15.2115 25.2718 14.9717 25.2718 14.6759V8.89122C25.2718 8.74937 25.2199 8.61337 25.1276 8.51294ZM3.5498 15.5329C3.5498 14.6468 4.21402 13.926 5.03057 13.926C5.84711 13.926 6.51133 14.6468 6.51133 15.5329C6.51133 16.4189 5.84711 17.1397 5.03057 17.1397C4.21402 17.1397 3.5498 16.4189 3.5498 15.5329ZM7.00492 17.1378L7.00627 17.1397H7.00357L7.00492 17.1378ZM8.97928 17.1397C8.16274 17.1397 7.49851 16.4189 7.49851 15.5329C7.49851 14.6468 8.16274 13.926 8.97928 13.926C9.79583 13.926 10.4601 14.6468 10.4601 15.5329C10.4601 16.4189 9.79563 17.1397 8.97928 17.1397ZM24.2846 10.2838H20.9353L23.1509 7.87941L24.2846 9.11279V10.2838ZM19.25 9.74821V8.64894L21.5569 6.14556L22.4537 7.12097L19.5708 10.2493C19.3838 10.1731 19.25 9.97752 19.25 9.74821ZM20.8598 5.38712L20.0549 6.26053L19.25 7.13394V4.93457H20.4437L20.8598 5.38712ZM21.0269 17.1397C20.2104 17.1397 19.5462 16.4189 19.5462 15.5329C19.5462 14.6468 20.2104 13.926 21.0269 13.926C21.8435 13.926 22.5077 14.6468 22.5077 15.5329C22.5077 16.4189 21.8435 17.1397 21.0269 17.1397ZM23.1341 14.1403C22.7003 13.3699 21.9181 12.8548 21.0269 12.8548C20.1358 12.8548 19.3535 13.3699 18.9197 14.1403H17.3784V4.93457H18.2628V9.74821C18.2628 10.6343 18.927 11.3551 19.7436 11.3551H24.2846V14.1403H23.1341Z" fill="#373873"/>
</svg>
