<svg width="40" height="40" viewBox="0 0 40 40" fill="none" xmlns="http://www.w3.org/2000/svg">
<path d="M0 20C0 30.9963 8.92988 40 20 40C31.0701 40 40 30.9963 40 20C40 9.00369 31.0701 0 20 0C9.00368 0 0 8.92989 0 20Z" fill="white"/>
<path d="M25.8542 13.0683C25.1439 13.0683 24.5627 13.6494 24.5627 14.3598C24.5627 15.0701 25.1439 15.6513 25.8542 15.6513C26.5646 15.6513 27.1458 15.0701 27.1458 14.3598C27.1458 13.6494 26.5646 13.0683 25.8542 13.0683ZM20.107 14.7472C17.1365 14.7472 14.6827 17.2011 14.6827 20.1716C14.6827 23.1421 17.1365 25.5959 20.107 25.5959C23.0775 25.5959 25.5314 23.1421 25.5314 20.1716C25.5314 17.2011 23.0775 14.7472 20.107 14.7472ZM20.107 23.6587C18.1697 23.6587 16.6199 22.1089 16.6199 20.1716C16.6199 18.2343 18.1697 16.6845 20.107 16.6845C22.0443 16.6845 23.5941 18.2343 23.5941 20.1716C23.5941 22.1089 21.9797 23.6587 20.107 23.6587ZM31.0849 15.6513C31.0849 11.9705 28.1144 9 24.4336 9H15.6513C11.9705 9 9 11.9705 9 15.6513V24.4336C9 28.1144 11.9705 31.0849 15.6513 31.0849H24.4336C28.1144 31.0849 31.0849 28.1144 31.0849 24.4336V15.6513ZM28.9539 24.4336C28.9539 26.952 26.8875 29.0184 24.369 29.0184H15.5867C13.0683 29.0184 11.0018 26.952 11.0018 24.4336V15.6513C11.0018 13.1328 13.0683 11.0664 15.5867 11.0664H24.369C26.8875 11.0664 28.9539 13.1328 28.9539 15.6513V24.4336Z" fill="#373873"/>
</svg>
