<svg width="40" height="40" viewBox="0 0 40 40" fill="none" xmlns="http://www.w3.org/2000/svg">
<path d="M20 40C8.97059 40 0 31.0294 0 20C0 8.97059 8.97059 0 20 0C31.0294 0 40 8.97059 40 20C40.0735 31.0294 31.1029 40 20 40Z" fill="white"/>
<path d="M29.4674 21.8721V28.4346C29.4674 28.6276 29.3387 28.7563 29.1457 28.7563H25.7358C25.5427 28.7563 25.4141 28.6276 25.4141 28.4346V22.3224C25.4141 20.714 24.835 19.6202 23.4196 19.6202C22.3258 19.6202 21.6824 20.328 21.3608 21.1C21.2321 21.3574 21.2321 21.6791 21.2321 22.0651V28.4346C21.2321 28.6276 21.1034 28.7563 20.9104 28.7563H17.5005C17.3074 28.7563 17.1788 28.6276 17.1788 28.4346C17.1788 26.8261 17.2431 18.9769 17.1788 17.111C17.1788 16.918 17.3074 16.7893 17.5005 16.7893H20.846C21.0391 16.7893 21.1677 16.918 21.1677 17.111V18.5265C21.1677 18.5265 21.1677 18.5265 21.1677 18.5908V18.5265C21.6824 17.6901 22.6475 16.532 24.7707 16.532C27.5372 16.4677 29.4674 18.2048 29.4674 21.8721ZM11.517 28.6919H14.9269C15.1199 28.6919 15.2486 28.5632 15.2486 28.3702V17.0467C15.2486 16.8537 15.1199 16.725 14.9269 16.725H11.517C11.324 16.725 11.1953 16.8537 11.1953 17.0467V28.3702C11.2597 28.5632 11.3883 28.6919 11.517 28.6919Z" fill="#373873"/>
<path d="M13.1232 15.2463C14.2958 15.2463 15.2463 14.2958 15.2463 13.1232C15.2463 11.9506 14.2958 11 13.1232 11C11.9506 11 11 11.9506 11 13.1232C11 14.2958 11.9506 15.2463 13.1232 15.2463Z" fill="#373873"/>
</svg>
