<svg width="42" height="42" viewBox="0 0 42 42" fill="none" xmlns="http://www.w3.org/2000/svg">
<path d="M32.4627 31.9552C33.6694 30.9112 32.4627 28.8233 32.4627 28.8233L28.2868 23.0039C25.807 23.004 25.2465 23.0291 22.7077 23.9529C21.7418 24.3044 20.7999 24.5563 19.8879 24.7242C15.4435 25.4433 13.5196 24.5313 12.7581 24.3321L9.53534 28.8233C9.53534 28.8233 8.32862 30.9112 9.53534 31.9552C10.7421 32.9991 11.9488 32.9991 11.9488 32.9991H23.2615H30.0493C30.0493 32.9991 31.256 32.9991 32.4627 31.9552Z" fill="white"/>
<path d="M24.2224 11.0869V11.0762H22.999M24.2224 11.0869C24.2224 11.0869 25.4292 11.0869 25.4292 10.043C25.4292 8.99902 24.2224 8.99902 24.2224 8.99902H17.7756C17.7756 8.99902 16.5689 8.99902 16.5689 10.043C16.5689 11.0869 17.7757 11.0869 17.7757 11.0869M24.2224 11.0869V15.4433M17.7757 11.0869V11.0762H18.999M17.7757 11.0869V17.3398L9.53534 28.8232C9.53534 28.8232 8.32862 30.9111 9.53534 31.9551C10.7421 32.999 11.9488 32.999 11.9488 32.999H23.2615M25.5241 32.999H30.0493C30.0493 32.999 31.256 32.999 32.4627 31.9551C33.6694 30.9111 32.4627 28.8232 32.4627 28.8232L25.5895 19.245M28.2868 23.0038C25.807 23.0039 25.2465 23.029 22.7077 23.9528C21.7418 24.3043 20.7999 24.5562 19.8879 24.7241C15.4435 25.4432 13.5196 24.5313 12.7581 24.3321" stroke="#373873" stroke-width="0.85" stroke-linecap="round"/>
<path d="M7 35.2829C10.6075 38.8194 15.5491 41 21 41C32.0457 41 41 32.0457 41 21C41 15.5491 38.8194 10.6075 35.2829 7M7 35.2829C3.29728 31.653 1 26.5948 1 21C1 9.9543 9.9543 1 21 1C26.5948 1 31.653 3.29728 35.2829 7M7 35.2829L35.2829 7" stroke="#373873" stroke-width="0.85"/>
</svg>
