<svg width="42" height="42" viewBox="0 0 42 42" fill="none" xmlns="http://www.w3.org/2000/svg">
<path d="M22.8 7.09999V12.7C22.8 12.8 22.8 12.8 22.7 12.8H17.1C17 12.8 17 12.8 17 12.9V17.1C17 17.2 17 17.2 17.1 17.2H22.7C22.8 17.2 22.8 17.2 22.8 17.3V22.9C22.8 23 22.8 23 22.9 23H27.1C27.2 23 27.2 23 27.2 22.9V17.3C27.2 17.2 27.2 17.2 27.3 17.2H32.9C33 17.2 33 17.2 33 17.1V12.9C33 12.8 33 12.8 32.9 12.8H27.3C27.2 12.8 27.2 12.8 27.2 12.7V7.09999C27.2 6.99999 27.2 7 27.1 7L23.0234 7L22.8 7.09999Z" fill="white" stroke="#373873" stroke-width="0.85" stroke-linejoin="round"/>
<path d="M7 35.3C10.6 38.8 15.5 41 21 41C32 41 41 32 41 21C41 15.5 38.8 10.6 35.3 7C31.7 3.3 26.6 1 21 1C10 1 1 10 1 21C1 24.2 1.70001 27.2 3.10001 29.9" stroke="#373873" stroke-width="0.85" stroke-linecap="round"/>
<path d="M2 26L7.29999 24.4L10.6 21M22 32.7L18.2 27.7L15.7 26.9L10.7 21L13.2 28.6M26.6 36.2L23.3 34.5L22.1 32.8M22 32.8L26.6 30.3H26.7L30.8 33.6L35 35.2M9 37L11.5 33.7V33.6L10 32V31.9L11.6 30.3" stroke="#373873" stroke-width="0.85" stroke-linecap="round"/>
</svg>
