<svg width="40" height="40" viewBox="0 0 40 40" fill="none" xmlns="http://www.w3.org/2000/svg">
<path d="M20 40C8.93773 40 0 30.989 0 20C0 8.93773 8.93773 0 20 0C30.989 0 40 8.93773 40 20C40 30.989 30.989 40 20 40Z" fill="white"/>
<path d="M30.3471 13.9872C29.706 14.3077 29.0009 14.4359 28.2958 14.5641C28.6163 14.5 29.1291 13.9231 29.3214 13.6667C29.6419 13.2821 29.8983 12.8974 30.0266 12.4487C30.0266 12.3846 30.0266 12.3846 30.0266 12.3205C29.9625 12.3205 29.9625 12.3205 29.8983 12.3205C29.1291 12.7692 28.2958 13.0256 27.4625 13.2821C27.3983 13.2821 27.3342 13.2821 27.2701 13.2179C27.206 13.1538 27.1419 13.0897 27.0778 13.0256C26.6932 12.7051 26.3086 12.4487 25.924 12.3205C25.3471 12.0641 24.706 12 24.1291 12C23.5522 12.0641 22.9112 12.1923 22.3983 12.5128C21.8855 12.7692 21.3727 13.1538 20.9881 13.6667C20.6035 14.1795 20.283 14.6923 20.1548 15.3333C20.0266 15.9103 20.0266 16.4872 20.0907 17.0641C20.0907 17.1923 20.0907 17.1923 20.0266 17.1923C16.6932 16.6795 13.8727 15.4615 11.6291 12.8974C11.5009 12.7692 11.5009 12.7692 11.3727 12.8974C10.4112 14.3718 10.8599 16.7436 12.0778 17.9615C12.2701 18.0897 12.3983 18.2821 12.5907 18.4103C12.5266 18.4103 11.6932 18.3462 10.9881 17.9615C10.8599 17.8974 10.8599 17.9615 10.8599 18.0256C10.8599 18.1538 10.8599 18.3462 10.8599 18.5385C11.0522 20.0128 12.0778 21.4231 13.4881 22C13.6804 22.0641 13.8727 22.1282 14.0009 22.1923C13.6804 22.1282 13.3599 22.1923 12.3983 22.1282C12.2701 22.1282 12.2701 22.1923 12.2701 22.2564C12.9753 24.1795 14.5137 24.7564 15.6035 25.0769C15.7317 25.0769 15.924 25.0769 16.0522 25.141C15.6676 25.7179 14.3855 26.1667 13.7445 26.359C12.6548 26.7436 11.4368 26.9359 10.283 26.8077C10.0907 26.8077 10.0266 26.8077 10.0266 26.8077C9.96245 26.8077 10.0266 26.8718 10.0907 26.9359C10.3471 27.0641 10.5394 27.2564 10.7958 27.3846C11.565 27.7692 12.3342 28.0897 13.1035 28.2821C17.2701 29.4359 21.9496 28.6026 25.0907 25.4615C27.5266 23.0256 28.424 19.6282 28.424 16.2949C28.424 16.1667 28.5522 16.1026 28.6804 16.0385C29.3214 15.5897 29.8342 15.0128 30.283 14.3718C30.4112 14.2436 30.4112 14.1154 30.4112 14.0513C30.4112 13.9231 30.4112 13.9872 30.3471 13.9872Z" fill="#373873"/>
</svg>
