<svg width="40" height="40" viewBox="0 0 40 40" fill="none" xmlns="http://www.w3.org/2000/svg">
<path d="M32.4967 20.0203C32.4967 20.0203 32.4967 24.0766 31.9818 26.032C31.6936 27.1023 30.849 27.9469 29.7787 28.2352C27.8232 28.75 19.9998 28.75 19.9998 28.75C19.9998 28.75 12.1967 28.75 10.2201 28.2148C9.14981 27.9266 8.30527 27.082 8.01699 26.0117C7.50293 24.0766 7.50293 20 7.50293 20C7.50293 20 7.50293 15.9445 8.01777 13.9883C8.30605 12.918 9.1709 12.0531 10.2209 11.7648C12.1764 11.25 19.9998 11.25 19.9998 11.25C19.9998 11.25 27.8232 11.25 29.7795 11.7852C30.8498 12.0734 31.6943 12.918 31.9826 13.9883C32.5178 15.9445 32.4967 20.0203 32.4967 20.0203Z" fill="#373873"/>
<path d="M17.5088 23.7467L24.015 19.9998L17.5096 16.2529L17.5088 23.7467Z" fill="white"/>
<path d="M20 0C8.95625 0 0 8.95625 0 20C0 31.0438 8.95625 40 20 40C31.0438 40 40 31.0438 40 20C40 8.95625 31.0438 0 20 0ZM32.4969 20.0203C32.4969 20.0203 32.4969 24.0766 31.982 26.032C31.6937 27.1023 30.8492 27.9469 29.7789 28.2352C27.8234 28.75 20 28.75 20 28.75C20 28.75 12.1969 28.75 10.2203 28.2148C9.15 27.9266 8.30547 27.082 8.01719 26.0117C7.50313 24.0766 7.50313 20 7.50313 20C7.50313 20 7.50312 15.9445 8.01797 13.9883C8.30625 12.918 9.17109 12.0531 10.2211 11.7648C12.1766 11.25 20 11.25 20 11.25C20 11.25 27.8234 11.25 29.7797 11.7852C30.85 12.0734 31.6945 12.918 31.9828 13.9883C32.518 15.9445 32.4969 20.0203 32.4969 20.0203Z" fill="white"/>
</svg>
