<svg width="24" height="24" viewBox="0 0 24 24" fill="none" xmlns="http://www.w3.org/2000/svg">
<path d="M21.9924 23.3748H1.45626C1.16653 23.3748 0.968393 23.2795 0.844318 23.1556C0.720323 23.0317 0.625008 22.8341 0.625005 22.5448L0.625 21.5302L1.94719 7.86755C2.0154 7.16276 2.6077 6.625 3.3158 6.625H20.6831C21.3915 6.625 21.984 7.16323 22.0518 7.86838L23.3656 21.5311L23.3674 21.9959C23.3703 22.7568 22.7544 23.3748 21.9924 23.3748Z" stroke="#373873" stroke-width="1.25" stroke-linecap="round" stroke-linejoin="bevel"/>
<path d="M6.625 6C6.625 3.03147 9.03147 0.625 12 0.625C14.9685 0.625 17.375 3.03147 17.375 6C17.375 6.34622 17.0943 6.62688 16.7481 6.62688H12H7.25188C6.90566 6.62688 6.625 6.34622 6.625 6Z" stroke="#373873" stroke-width="1.25"/>
</svg>
