<svg width="40" height="40" viewBox="0 0 40 40" fill="none" xmlns="http://www.w3.org/2000/svg">
<path d="M20 40C8.97059 40 0 31.0294 0 20C0 8.97059 8.97059 0 20 0C31.0294 0 40 8.97059 40 20C40.0735 31.0294 31.1029 40 20 40Z" fill="white"/>
<path d="M21.3349 24.8095C20.1125 24.6808 19.5335 24.1017 18.5684 23.5227C18.118 25.8389 17.6033 28.0264 16.3809 29.5705C15.9948 30.0208 15.2871 29.7635 15.2871 29.2488C15.0941 25.5815 16.3809 22.6863 16.9599 19.5981C15.8018 17.6036 17.0886 13.6146 19.5978 14.5797C22.686 15.8021 16.9599 21.9786 20.7559 22.7506C24.7448 23.587 26.4176 15.8021 23.9085 13.2929C20.3055 9.62563 13.4857 13.2286 14.3221 18.44C14.4507 19.405 15.2871 19.8554 15.2228 20.8848C15.1585 21.4639 14.5151 21.8499 14.0004 21.5925C12.3919 20.8205 11.9415 19.212 12.0059 17.1532C12.1346 13.2286 15.5445 10.3977 18.9544 10.076C23.2651 9.56129 27.3184 11.6845 27.8974 15.7378C28.5408 20.1771 25.9673 25.1955 21.3349 24.8095Z" fill="#373873"/>
</svg>
