<svg width="42" height="42" viewBox="0 0 42 42" fill="none" xmlns="http://www.w3.org/2000/svg">
<path d="M21.5721 14.908C19.3746 11.4695 18.9973 8.34751 19.5546 6.59899C19.7561 5.967 20.4603 5.62202 21.021 5.97649C22.0029 6.59724 22.6816 8.04148 23.3189 9.02023C23.177 7.30742 24.2525 5 24.9191 5C26.7033 5.18406 27.5858 7.69955 27.5858 8.37444C27.5858 9.04932 27.8016 12.3989 26.9191 13.7735C27.9616 14.3522 29.4441 15.5967 31.3214 17.7181C33.6778 20.381 32.9343 22.2763 32.1915 22.9822C32.1268 23.0437 32.0668 23.1093 32.0016 23.1702C31.6893 23.4613 30.9377 23.7722 30.2642 24.0042C29.777 24.172 29.4754 24.6634 29.4919 25.1784C29.5743 27.7432 28.0249 29.6919 26.531 30.8754C26.4933 30.9052 26.459 30.9386 26.4172 30.9621C26.0178 31.1867 24.3959 31.1915 24.4695 32.2091C24.5421 33.2147 25.3737 34.0077 26.199 34.587C26.4258 34.7461 26.6695 34.9246 26.9599 35.1139C27.326 35.3527 27.5629 35.5603 27.7024 35.7399C28.1557 36.3238 26.758 37.5441 26.0241 37.6322C25.8382 37.6545 25.6198 37.6671 25.3634 37.6671C24.4895 37.6671 23.96 37.5206 23.6392 37.3428C23.24 37.1217 22.7492 36.7577 22.3453 36.5455C21.6142 36.0737 20.7674 35.2619 20.1359 34.0167C19.9513 33.6526 19.5902 33.424 19.1965 33.5319C18.2632 33.788 16.689 34.3652 15.6314 34.7664C15.3101 34.8882 15.1369 35.231 15.1293 35.5745C15.1131 36.3082 14.4774 36.8386 13.7591 36.9889C12.1104 37.3337 11.0457 37.1674 9.33398 36.9889C4.36675 34.18 2.04165 28.1592 1.5 25.5L3 23C5.8 19 12.5287 18.5258 15.543 18.7886C18.6645 19.2347 24.2403 19.083 21.5721 14.908Z" fill="white"/>
<path d="M9.41482 36.9889C11.1265 37.1674 12.1912 37.3337 13.8399 36.9889C14.5582 36.8386 15.194 36.3082 15.2102 35.5745C15.2146 35.3722 15.1976 35.1719 15.1537 34.9801M12.032 33.56C10.9969 33.6747 8.28219 33.6487 6.55535 34.3338M12.032 33.56C13.7852 31.8478 15.316 27.995 7.41393 26.2822M12.032 33.56C14.104 33.3305 14.9418 34.0554 15.1537 34.9801M15.1537 34.9801C16.3794 34.5068 18.9847 33.56 19.6005 33.56M29.478 24.275C30.016 27.3217 28.2371 29.6078 26.5554 30.9197M22.0378 20.9297C22.3799 22.0448 23.7054 24.3285 26.271 24.5426C28.8366 24.7567 31.2739 23.6505 32.1719 23.0707C32.9416 22.4462 33.8652 20.5015 31.4022 17.7181C29.525 15.5967 28.0424 14.3522 27 13.7735M25.8001 13.2706C25.936 13.3891 26.1013 13.4634 26.2753 13.5107C26.4955 13.5707 26.7819 13.6525 27 13.7735M24.4751 11.1613C24.2813 10.5547 23.9044 9.7953 23.3997 9.02023M27 13.7735C27.8825 12.3989 27.6666 9.04932 27.6666 8.37444C27.6666 7.69955 26.7841 5.18406 25 5C24.3333 5 23.2578 7.30742 23.3997 9.02023M23.3997 9.02023C22.7625 8.04148 22.0837 6.59724 21.1018 5.97649C20.5412 5.62202 19.837 5.967 19.6355 6.59899C19.0781 8.34751 19.4554 11.4695 21.6529 14.908C24.3212 19.083 18.7453 19.2347 15.6239 18.7886C13.0857 18.5515 6.36505 18.6524 3.08105 23.0707M18.9591 27.2189C18.877 29.7454 19.4727 34.9933 22.4261 36.5455V36.5455C22.83 36.7577 23.3209 37.1217 23.72 37.3428C24.0409 37.5206 24.5704 37.6671 25.4442 37.6671C25.7006 37.6671 25.919 37.6545 26.1049 37.6322C26.8389 37.5441 28.2366 36.3238 27.7832 35.7399C27.6438 35.5603 27.4069 35.3527 27.0407 35.1139C26.7503 34.9246 26.5066 34.7461 26.2799 34.587C25.4546 34.0077 24.623 33.2147 24.5503 32.2091C24.4724 31.1313 24.4728 30.0314 24.7317 29.7614" stroke="#373873" stroke-width="0.75" stroke-linecap="round"/>
<path d="M21 41C16.6757 41 12.6719 39.6276 9.40042 37.2946C8.54815 36.6868 7 35.2829 7 35.2829C4.30822 32.6441 2.3592 29.2504 1.49559 25.4444C1.17125 24.0151 1 22.5275 1 21C1 9.95431 9.95431 1 21 1C26.5948 1 31.653 3.29728 35.2829 7C38.8194 10.6075 41 15.5491 41 21C41 30.2547 34.714 38.0413 26.1787 40.323" stroke="#373873" stroke-width="0.75" stroke-linecap="round"/>
</svg>
