<svg width="42" height="42" viewBox="0 0 42 42" fill="none" xmlns="http://www.w3.org/2000/svg">
<path d="M7 35.2829C10.6075 38.8194 15.5491 41 21 41C32.0457 41 41 32.0457 41 21C41 15.5491 38.8194 10.6075 35.2829 7C31.653 3.29728 26.5948 1 21 1C9.95431 1 1 9.95431 1 21C1 24.7407 2.02697 28.2416 3.81436 31.2361" stroke="#373873" stroke-width="0.85" stroke-linecap="round"/>
<path d="M19.8764 36.2406C19.8764 36.2406 27.0252 35.4872 27.962 35.2213C28.742 34.9925 31.7227 32.2503 32.6985 31.3388C32.899 31.1516 33.0535 30.8692 32.9199 30.6295C32.4524 29.7909 30.3083 31.1359 29.9927 31.3401C29.9662 31.3573 29.9426 31.3747 29.9178 31.3944C29.6613 31.5984 28.0907 32.8193 27.0161 33.0142C26.014 33.1959 22.3914 33.0543 21.3555 33.0091C21.1718 33.0011 20.9965 32.9418 20.8444 32.8386L17.6096 30.6425C17.4281 30.5193 17.2852 30.3392 17.2719 30.1202C17.237 29.5471 17.5 28.4849 20.122 29.0343C23.6327 29.77 24.3694 28.6177 24.4967 28.4581C24.6241 28.2986 24.4058 27.9795 23.8965 27.8199C23.4635 27.6843 21.9265 27.7216 21.4752 27.7359C21.3914 27.7385 21.3083 27.7312 21.2264 27.7136L15.5697 26.4962C15.5243 26.4864 15.4789 26.4798 15.4326 26.4776C15.0084 26.4576 12.69 26.4022 10.2082 27.4033C8.74403 27.994 3.91999 27.924 2.64258 27.8199M17.9846 36.0013C16.7516 35.6159 15.5582 34.425 9.09973 33.5824" stroke="#373873" stroke-width="0.85" stroke-miterlimit="10" stroke-linecap="round"/>
<path d="M22.5629 23.6874C22.5518 23.7327 22.5152 23.7672 22.4686 23.766C19.7434 23.6951 8.42128 22.5912 11.4319 9.22833C11.4423 9.18233 11.4841 9.14736 11.5312 9.14801L11.6555 9.14971C11.706 9.1504 11.773 9.1497 11.8235 9.14998C12.9671 9.15642 26.0151 9.6534 22.5629 23.6874Z" fill="white" stroke="#373873" stroke-width="0.85" stroke-miterlimit="10" stroke-linecap="round"/>
<path d="M17.7646 18.2471C22.3045 25.4328 28.5809 26.6878 30.1392 27.1263C31.119 27.4026 32.9577 27.5806 34.6521 29.9964" stroke="#373873" stroke-width="0.85" stroke-miterlimit="10" stroke-linecap="round"/>
<path d="M31.9552 24.2934C31.924 24.3285 31.8765 24.3417 31.8363 24.3175C31.0509 23.8459 23.3928 18.9896 30.8277 13.155C30.8637 13.1267 30.9138 13.1226 30.9491 13.1518C31.58 13.6752 37.0887 18.5246 31.9552 24.2934Z" fill="white" stroke="#373873" stroke-width="0.85" stroke-miterlimit="10"/>
<path d="M31.4784 27.2016C31.9961 24.6129 31.963 22.2997 31.672 20.555C31.5667 19.9233 31.4276 19.3662 31.2686 18.8975" stroke="#373873" stroke-width="0.85" stroke-linecap="round"/>
</svg>
