<svg width="42" height="42" viewBox="0 0 42 42" fill="none" xmlns="http://www.w3.org/2000/svg">
<path d="M8.00098 6.00098C8.00098 6.00098 10.7576 5.90232 12.1372 5.99825C12.1679 6.00039 12.197 6.00528 12.2277 6.00823C12.4615 6.03067 13.6567 6.01108 17.0715 4.05261C19.2337 2.81248 21.1352 2.88446 22.3921 3.18938C22.8776 3.30716 22.7661 3.87952 22.2756 3.97459C21.3799 4.14821 20.4623 4.51151 20.4492 5.27127C20.4427 5.65204 20.2408 6.08692 19.8603 6.10145L19.5542 6.11314C19.5369 6.1138 19.5199 6.11358 19.5026 6.11252C19.2445 6.09675 17.1209 5.97702 16.9364 6.29438C16.7827 6.56746 16.9445 8.0529 17.0223 8.68767C17.0442 8.86583 17.162 9.01699 17.3305 9.07875C17.826 9.26035 18.8495 9.60083 19.0984 9.41487C19.43 9.16703 19.8231 8.95296 20.6584 9.34725M23.1977 9.34725L23.2768 10.5293C23.2905 10.7338 23.4275 10.9092 23.6227 10.9719L24.4938 11.2519C24.6464 11.3009 24.8124 11.2739 24.9501 11.1919C25.404 10.9214 26.4847 10.4026 27.2315 11.0543C27.3966 11.1984 27.6183 11.2846 27.8271 11.2181L28.3184 11.0617C28.3464 11.0528 28.375 11.0464 28.4041 11.0425L28.4349 11.0384C28.7465 10.9968 29.0187 11.2498 29.0001 11.5636L28.9557 12.3111C28.9447 12.4974 29.0371 12.6739 29.1897 12.7812C29.8224 13.226 31.4359 14.5282 31.5542 16.3092V16.3092C31.5623 16.3977 31.5938 16.482 31.6442 16.5552C31.8454 16.8472 32.392 17.6733 32.7414 18.514C32.7609 18.5608 32.7863 18.6047 32.8218 18.6409C32.9958 18.8187 33.5851 19.3214 34.183 18.6974C34.6706 18.1797 35.4976 17.6456 35.955 17.3689C36.1476 17.2524 36.2466 17.0249 36.1933 16.8061L35.8168 15.2607C35.7853 15.1314 35.8067 14.9949 35.8761 14.8814L36.1962 14.3584C36.3348 14.132 36.6261 14.0533 36.8598 14.1792L37.2382 14.3831C37.3581 14.4477 37.4461 14.5569 37.4835 14.6879C37.6974 15.4355 38.4545 18.0039 38.8632 18.3594" stroke="#373873" stroke-width="0.75" stroke-miterlimit="10" stroke-linecap="round"/>
<path d="M11.2411 15.5677C11.2411 15.5677 9.9996 13 14.0104 11.8424C14.0104 11.8424 18.5797 10.7261 18.9699 11.0636C19.3602 11.4011 19.6622 12.1409 19.6622 12.1409L21.3238 13.1144C21.3238 13.1144 21.8022 13.0106 22.5071 12.6601C23.149 12.3356 24.0805 13.0755 24.0805 13.0755C24.0805 13.0755 24.5589 12.6082 25.7169 13.374C26.2834 13.7505 26.7869 14.685 27.4666 16.035C30.0723 21.1492 30.4499 21.3309 30.4499 21.3309L32.036 21.1622C32.036 21.1622 33.5213 21.292 32.8038 22.4992C32.0863 23.7193 30.9156 24.1346 30.9156 24.1346L30.815 26.2115C30.815 26.2115 30.4877 27.0552 29.8583 27.0682L29.9338 29.5344C29.9338 29.5344 27.7687 34.5578 24.2442 36.3621C20.7196 38.1663 21.4497 35.5703 21.4497 35.5703V34.2852L19.9266 32.5848C19.9266 32.5848 19.8007 31.2349 20.8203 31.0402C21.8399 30.8454 21.1979 28.483 21.1979 28.483" stroke="#373873" stroke-width="0.75" stroke-miterlimit="10" stroke-linecap="round"/>
<path d="M32.5142 29.002C32.5142 29.002 30.2689 31.0753 31.2465 32.1711C31.9771 32.9983 33.1265 31.172 33.6637 30.2159C33.8463 29.8829 33.8463 29.4961 33.6852 29.1524L32.5142 29.002Z" stroke="#373873" stroke-width="0.75" stroke-miterlimit="10"/>
<path d="M21 41C32.0457 41 41 32.0457 41 21C41 15.5491 38.8194 10.6075 35.2829 7C31.653 3.29728 26.5948 1 21 1C9.9543 1 1 9.9543 1 21C1 26.5948 3.29728 31.653 7 35.2829C8.04733 36.3096 9.20711 37.222 10.4592 38" stroke="#373873" stroke-width="0.75" stroke-linecap="round"/>
<path d="M12.5498 33.1104C12.4662 33.1519 12.364 33.1369 12.3062 33.0637C10.4936 30.7665 4.1158 21.2715 16.4294 14.8575C16.5039 14.8187 16.5993 14.8357 16.6525 14.9007C16.7095 14.9704 16.7956 15.0716 16.8523 15.1416C17.8396 16.3587 25.5339 26.6555 12.5498 33.1104Z" fill="white"/>
<path d="M20.9995 40.9994C16.3329 40.9996 8.3998 37.9998 13.9997 25.9994M16.6525 14.9007C16.7095 14.9704 16.7956 15.0716 16.8523 15.1416C17.8396 16.3587 25.5339 26.6555 12.5498 33.1104C12.4662 33.1519 12.364 33.1369 12.3062 33.0637C10.4936 30.7665 4.1158 21.2715 16.4294 14.8575C16.5039 14.8187 16.5993 14.8357 16.6525 14.9007Z" stroke="#373873" stroke-width="0.75" stroke-linecap="round"/>
</svg>
